<?xml version="1.0" encoding="utf-8"?>
<!-- Generator: Adobe Illustrator 24.0.0, SVG Export Plug-In . SVG Version: 6.00 Build 0)  -->
<svg version="1.1" id="Layer_1" xmlns="http://www.w3.org/2000/svg" xmlns:xlink="http://www.w3.org/1999/xlink" x="0px" y="0px"
	 viewBox="0 0 745 423" style="enable-background:new 0 0 745 423;" xml:space="preserve">
<style type="text/css">
	.st0{clip-path:url(#SVGID_2_);}
	.st1{opacity:0.3;}
	.st2{opacity:0.47;}
</style>
<g>
	<defs>
		<rect id="SVGID_1_" width="745" height="423"/>
	</defs>
	<clipPath id="SVGID_2_">
		<use xlink:href="#SVGID_1_"  style="overflow:visible;"/>
	</clipPath>
	<g class="st0">
		<path class="st1" d="M-24.64,292.82c69.84-0.75,139.6-8.88,207.75-24.19c36.29-8.16,76.19-17.95,109.09-0.57
			c14.75,7.79,26.35,20.33,39.88,30.08c21.81,15.72,48.88,23.99,75.75,23.14c16.81-0.53,34.12-4.44,50.11,0.77
			c9.84,3.21,18.25,9.62,27.07,15.04c49.57,30.49,112.57,29.63,169.39,17.04c12.17-2.7,24.42-5.96,35.11-12.36
			c10.76-6.44,19.53-15.82,30.3-22.25c24.44-14.6,55.05-12.06,83.36-9.04l0.32,136.04h-828L-24.64,292.82z"/>
		<g class="st2">
			<path d="M-24.64,295.82c62.59-0.73,125.1-7.27,186.48-19.6c28.01-5.63,56.09-14.27,84.84-14.8c13.72-0.25,27.66,1.61,40.23,7.36
				c12.74,5.83,23.04,15.38,33.72,24.2c21.05,17.35,45.72,28.56,73.07,30.91c14.54,1.25,28.81-1.28,43.32-1.51
				c7.52-0.12,15.04,0.59,22.12,3.26c6.58,2.48,12.52,6.43,18.39,10.24c22.45,14.52,47.18,23.55,73.66,27.23
				c26.41,3.67,53.23,2.51,79.53-1.5c13.37-2.04,26.89-4.56,39.84-8.51c13.31-4.06,24.32-10.74,35.09-19.43
				c11.34-9.15,22.54-16.6,36.93-19.9c13.23-3.04,26.98-3,40.45-2.12c6.73,0.44,13.43,1.11,20.13,1.82c-1-1-2-2-3-3
				c0.09,39.79,0.19,79.59,0.28,119.38c0.01,5.55,0.03,11.11,0.04,16.66c1-1,2-2,3-3c-7.43,0-14.87,0-22.3,0
				c-20.05,0-40.09,0-60.14,0c-29.72,0-59.44,0-89.16,0c-36.26,0-72.52,0-108.78,0c-39.58,0-79.15,0-118.73,0
				c-40.22,0-80.44,0-120.66,0c-37.25,0-74.49,0-111.74,0c-31.59,0-63.18,0-94.76,0c-22.71,0-45.42,0-68.13,0
				c-7.04,0-14.09,0-21.13,0c-3.64,0-7.44-0.31-11.07,0c-0.46,0.04-0.94,0-1.41,0c1,1,2,2,3,3c-0.02-17.35-0.03-34.69-0.05-52.04
				c-0.02-27.51-0.05-55.02-0.07-82.53c-0.01-6.37-0.01-12.74-0.02-19.11c0-3.86-6-3.87-6,0c0.02,17.35,0.03,34.69,0.05,52.04
				c0.02,27.51,0.05,55.02,0.07,82.53c0.01,6.37,0.01,12.74,0.02,19.11c0,1.62,1.37,3,3,3c7.43,0,14.87,0,22.3,0
				c20.05,0,40.09,0,60.14,0c29.72,0,59.44,0,89.16,0c36.26,0,72.52,0,108.78,0c39.58,0,79.15,0,118.73,0c40.22,0,80.44,0,120.66,0
				c37.25,0,74.49,0,111.74,0c31.59,0,63.18,0,94.76,0c22.71,0,45.42,0,68.13,0c10.73,0,21.48,0.2,32.2,0c0.47-0.01,0.94,0,1.41,0
				c1.62,0,3-1.37,3-3c-0.09-39.79-0.19-79.59-0.28-119.38c-0.01-5.55-0.03-11.11-0.04-16.66c0-1.75-1.38-2.83-3-3
				c-25.97-2.75-53.79-5.26-78.23,5.96c-12.76,5.86-22.35,16.11-33.89,23.81c-12.04,8.03-26.16,11.59-40.14,14.58
				c-51.9,11.12-110.04,12.71-157.87-13.53c-11.66-6.4-22.16-15.39-35.03-19.36c-14.32-4.41-29.43-1.97-44.05-0.97
				c-28.1,1.92-56.09-5.34-79.22-21.59c-11.21-7.88-20.91-17.69-32.18-25.48c-10.92-7.54-23.28-12.33-36.41-14.26
				c-27.2-4-54.67,2.54-81.08,8.49c-61.24,13.8-123.6,22.03-186.35,24.18c-7.79,0.27-15.57,0.44-23.37,0.53
				C-28.5,289.86-28.51,295.86-24.64,295.82z"/>
		</g>
	</g>
</g>
</svg>
