<?xml version="1.0" encoding="utf-8"?>
<!-- Generator: Adobe Illustrator 24.0.0, SVG Export Plug-In . SVG Version: 6.00 Build 0)  -->
<svg version="1.1" id="Layer_1" xmlns="http://www.w3.org/2000/svg" xmlns:xlink="http://www.w3.org/1999/xlink" x="0px" y="0px"
	 viewBox="0 0 745 423" style="enable-background:new 0 0 745 423;" xml:space="preserve">
<style type="text/css">
	.st0{clip-path:url(#SVGID_2_);}
	.st1{opacity:0.26;fill:#FFFFFF;}
</style>
<g>
	<defs>
		<rect id="SVGID_1_" width="745" height="423"/>
	</defs>
	<clipPath id="SVGID_2_">
		<use xlink:href="#SVGID_1_"  style="overflow:visible;"/>
	</clipPath>
	<g class="st0">
		<g>
			<path class="st1" d="M54.61,648c0,5.5-4.5,10-10,10H44c-5.5,0-10-4.5-10-10V282c0-5.5,4.5-10,10-10h0.61c5.5,0,10,4.5,10,10V648z
				"/>
		</g>
		<g>
			<path class="st1" d="M95.83,625c0,5.5-4.5,10-10,10h-0.61c-5.5,0-10-4.5-10-10V259c0-5.5,4.5-10,10-10h0.61c5.5,0,10,4.5,10,10
				V625z"/>
		</g>
		<g>
			<path class="st1" d="M137.04,606c0,5.5-4.5,10-10,10h-0.61c-5.5,0-10-4.5-10-10V240c0-5.5,4.5-10,10-10h0.61c5.5,0,10,4.5,10,10
				V606z"/>
		</g>
		<g>
			<path class="st1" d="M178.26,642c0,5.5-4.5,10-10,10h-0.61c-5.5,0-10-4.5-10-10V276c0-5.5,4.5-10,10-10h0.61c5.5,0,10,4.5,10,10
				V642z"/>
		</g>
		<g>
			<path class="st1" d="M219.48,682c0,5.5-4.5,10-10,10h-0.61c-5.5,0-10-4.5-10-10V316c0-5.5,4.5-10,10-10h0.61c5.5,0,10,4.5,10,10
				V682z"/>
		</g>
		<g>
			<path class="st1" d="M260.7,710c0,5.5-4.5,10-10,10h-0.61c-5.5,0-10-4.5-10-10V344c0-5.5,4.5-10,10-10h0.61c5.5,0,10,4.5,10,10
				V710z"/>
		</g>
		<g>
			<path class="st1" d="M301.91,728c0,5.5-4.5,10-10,10h-0.61c-5.5,0-10-4.5-10-10V362c0-5.5,4.5-10,10-10h0.61c5.5,0,10,4.5,10,10
				V728z"/>
		</g>
		<g>
			<path class="st1" d="M343.13,657c0,5.5-4.5,10-10,10h-0.61c-5.5,0-10-4.5-10-10V291c0-5.5,4.5-10,10-10h0.61c5.5,0,10,4.5,10,10
				V657z"/>
		</g>
		<g>
			<path class="st1" d="M384.35,706c0,5.5-4.5,10-10,10h-0.61c-5.5,0-10-4.5-10-10V340c0-5.5,4.5-10,10-10h0.61c5.5,0,10,4.5,10,10
				V706z"/>
		</g>
		<g>
			<path class="st1" d="M425.57,745c0,5.5-4.5,10-10,10h-0.61c-5.5,0-10-4.5-10-10V379c0-5.5,4.5-10,10-10h0.61c5.5,0,10,4.5,10,10
				V745z"/>
		</g>
		<g>
			<path class="st1" d="M466.78,728c0,5.5-4.5,10-10,10h-0.61c-5.5,0-10-4.5-10-10V362c0-5.5,4.5-10,10-10h0.61c5.5,0,10,4.5,10,10
				V728z"/>
		</g>
		<g>
			<path class="st1" d="M508,703c0,5.5-4.5,10-10,10h-0.61c-5.5,0-10-4.5-10-10V337c0-5.5,4.5-10,10-10H498c5.5,0,10,4.5,10,10V703z
				"/>
		</g>
		<g>
			<path class="st1" d="M549.48,684c0,5.5-4.5,10-10,10h-0.61c-5.5,0-10-4.5-10-10V318c0-5.5,4.5-10,10-10h0.61c5.5,0,10,4.5,10,10
				V684z"/>
		</g>
		<g>
			<path class="st1" d="M590.7,712c0,5.5-4.5,10-10,10h-0.61c-5.5,0-10-4.5-10-10V346c0-5.5,4.5-10,10-10h0.61c5.5,0,10,4.5,10,10
				V712z"/>
		</g>
		<g>
			<path class="st1" d="M631.91,730c0,5.5-4.5,10-10,10h-0.61c-5.5,0-10-4.5-10-10V364c0-5.5,4.5-10,10-10h0.61c5.5,0,10,4.5,10,10
				V730z"/>
		</g>
		<g>
			<path class="st1" d="M673.13,685c0,5.5-4.5,10-10,10h-0.61c-5.5,0-10-4.5-10-10V319c0-5.5,4.5-10,10-10h0.61c5.5,0,10,4.5,10,10
				V685z"/>
		</g>
		<g>
			<path class="st1" d="M714.35,711c0,5.5-4.5,10-10,10h-0.61c-5.5,0-10-4.5-10-10V345c0-5.5,4.5-10,10-10h0.61c5.5,0,10,4.5,10,10
				V711z"/>
		</g>
	</g>
</g>
</svg>
