<?xml version="1.0" encoding="utf-8"?>
<!-- Generator: Adobe Illustrator 24.0.0, SVG Export Plug-In . SVG Version: 6.00 Build 0)  -->
<svg version="1.1" id="Layer_1" xmlns="http://www.w3.org/2000/svg" xmlns:xlink="http://www.w3.org/1999/xlink" x="0px" y="0px"
	 viewBox="0 0 745 423" style="enable-background:new 0 0 745 423;" xml:space="preserve">
<g>
	<g>
		<g>
			<g>
				<path d="M579.19,303.45c28.82,3.71,53.12,20.89,79.13,32.36c7.15,3.15,14.48,5.91,22.05,7.88c1.87,0.48,2.67-2.41,0.8-2.89
					c-27.84-7.21-51.39-24.83-78.29-34.47c-7.68-2.75-15.59-4.83-23.69-5.87C577.28,300.21,577.3,303.21,579.19,303.45
					L579.19,303.45z"/>
			</g>
		</g>
		<g>
			<g>
				<path d="M490.83,330.12c19.34-3.06,35.29-15.26,53.19-22.26c5.24-2.05,10.64-3.61,16.21-4.42c1.9-0.28,1.09-3.17-0.8-2.89
					c-19.59,2.86-35.68,15.05-53.71,22.23c-5.07,2.02-10.3,3.6-15.69,4.46C488.13,327.53,488.94,330.42,490.83,330.12L490.83,330.12
					z"/>
			</g>
		</g>
		<g>
			<g>
				<path d="M389.23,283.07c20.28,14.42,39.23,31.51,62.4,41.28c6.04,2.55,12.3,4.52,18.78,5.61c1.89,0.32,2.7-2.57,0.8-2.89
					c-23.75-3.99-43.98-19.19-62.7-33.39c-5.88-4.46-11.75-8.92-17.77-13.2C389.17,279.35,387.67,281.95,389.23,283.07
					L389.23,283.07z"/>
			</g>
		</g>
		<g>
			<g>
				<path d="M286.49,242.29c23.98,0.05,47.09,8.08,68.11,19.16c6.16,3.25,12.17,6.77,18.06,10.48c1.64,1.03,3.15-1.56,1.51-2.59
					c-20.64-12.99-43.2-24.03-67.4-28.24c-6.7-1.16-13.48-1.8-20.28-1.81C284.55,239.29,284.55,242.29,286.49,242.29L286.49,242.29z
					"/>
			</g>
		</g>
		<g>
			<g>
				<path d="M195.46,274.88c9.07-5.09,18.32-9.87,27.63-14.5c9.01-4.48,18.18-8.69,27.72-11.91c5.34-1.81,10.79-3.29,16.33-4.36
					c1.89-0.37,1.09-3.26-0.8-2.89c-20,3.87-38.37,13.17-56.3,22.47c-5.4,2.8-10.78,5.64-16.09,8.61
					C192.26,273.23,193.77,275.82,195.46,274.88L195.46,274.88z"/>
			</g>
		</g>
		<g>
			<g>
				<path d="M119.26,338.55c8.89-4.17,16.13-11.12,22.72-18.25c7.03-7.61,13.51-15.77,21.13-22.82c4.84-4.48,10.06-8.51,15.5-12.24
					c1.58-1.09,0.08-3.69-1.51-2.59c-9.25,6.35-17.59,13.63-25.12,21.94c-6.82,7.53-13.23,15.49-20.84,22.26
					c-4.05,3.61-8.47,6.79-13.4,9.1C116,336.77,117.52,339.36,119.26,338.55L119.26,338.55z"/>
			</g>
		</g>
		<g>
			<g>
				<path d="M46.1,320.74c14.67,3.41,26.85,13.01,40.82,18.25c3.84,1.44,7.79,2.47,11.86,2.98c1.91,0.24,1.89-2.77,0-3
					c-14.69-1.82-27.07-11.34-40.32-17.14c-3.75-1.64-7.58-3.05-11.57-3.98C45.02,317.41,44.22,320.3,46.1,320.74L46.1,320.74z"/>
			</g>
		</g>
	</g>
	<g>
		<g>
			<g>
				<path d="M45,317.5c-0.05,3.52-2.21,6.77-5.56,7.98c-3.41,1.23-7.27,0.17-9.56-2.64c-2.22-2.73-2.47-6.69-0.67-9.7
					c1.78-2.98,5.38-4.66,8.81-4.01C42.06,309.91,44.94,313.4,45,317.5c0.03,1.93,3.03,1.93,3,0c-0.07-4.81-3.02-9.07-7.52-10.78
					c-4.47-1.7-9.79-0.27-12.81,3.43c-3.05,3.73-3.55,9.07-1.06,13.24c2.48,4.16,7.33,6.26,12.07,5.41
					c5.4-0.97,9.24-5.89,9.32-11.29C48.03,315.57,45.03,315.57,45,317.5z"/>
			</g>
		</g>
		<g>
			<g>
				<path d="M117,338.5c-0.05,3.52-2.21,6.77-5.56,7.98c-3.41,1.23-7.27,0.17-9.56-2.64c-2.22-2.73-2.47-6.69-0.67-9.7
					c1.78-2.98,5.38-4.66,8.81-4.01C114.06,330.91,116.94,334.4,117,338.5c0.03,1.93,3.03,1.93,3,0c-0.07-4.81-3.02-9.07-7.52-10.78
					c-4.47-1.7-9.79-0.27-12.81,3.43c-3.05,3.73-3.55,9.07-1.06,13.24c2.48,4.16,7.33,6.26,12.07,5.41
					c5.4-0.97,9.24-5.89,9.32-11.29C120.03,336.57,117.03,336.57,117,338.5z"/>
			</g>
		</g>
		<g>
			<g>
				<path d="M194,277.5c-0.05,3.52-2.21,6.77-5.56,7.98c-3.41,1.23-7.27,0.17-9.56-2.64c-2.22-2.73-2.47-6.69-0.67-9.7
					c1.78-2.98,5.38-4.66,8.81-4.01C191.06,269.91,193.94,273.4,194,277.5c0.03,1.93,3.03,1.93,3,0c-0.07-4.81-3.02-9.07-7.52-10.78
					c-4.47-1.7-9.79-0.27-12.81,3.43c-3.05,3.73-3.55,9.07-1.06,13.24c2.48,4.16,7.33,6.26,12.07,5.41
					c5.4-0.97,9.24-5.89,9.32-11.29C197.03,275.57,194.03,275.57,194,277.5z"/>
			</g>
		</g>
		<g>
			<g>
				<path d="M285,240.5c-0.05,3.52-2.21,6.77-5.56,7.98c-3.41,1.23-7.27,0.17-9.56-2.64c-2.22-2.73-2.47-6.69-0.67-9.7
					c1.78-2.98,5.38-4.66,8.81-4.01C282.06,232.91,284.94,236.4,285,240.5c0.03,1.93,3.03,1.93,3,0c-0.07-4.81-3.02-9.07-7.52-10.78
					c-4.47-1.7-9.79-0.27-12.81,3.43c-3.05,3.73-3.55,9.07-1.06,13.24c2.48,4.16,7.33,6.26,12.07,5.41
					c5.4-0.97,9.24-5.89,9.32-11.29C288.03,238.57,285.03,238.57,285,240.5z"/>
			</g>
		</g>
		<g>
			<g>
				<path d="M390,276.5c-0.05,3.52-2.21,6.77-5.56,7.98c-3.41,1.23-7.27,0.17-9.56-2.64c-2.22-2.73-2.47-6.69-0.67-9.7
					c1.78-2.98,5.38-4.66,8.81-4.01C387.06,268.91,389.94,272.4,390,276.5c0.03,1.93,3.03,1.93,3,0c-0.07-4.81-3.02-9.07-7.52-10.78
					c-4.47-1.7-9.79-0.27-12.81,3.43c-3.05,3.73-3.55,9.07-1.06,13.24c2.48,4.16,7.33,6.26,12.07,5.41
					c5.4-0.97,9.24-5.89,9.32-11.29C393.03,274.57,390.03,274.57,390,276.5z"/>
			</g>
		</g>
		<g>
			<g>
				<path d="M489,328.5c-0.05,3.52-2.21,6.77-5.56,7.98c-3.41,1.23-7.27,0.17-9.56-2.64c-2.22-2.73-2.47-6.69-0.67-9.7
					c1.78-2.98,5.38-4.66,8.81-4.01C486.06,320.91,488.94,324.4,489,328.5c0.03,1.93,3.03,1.93,3,0c-0.07-4.81-3.02-9.07-7.52-10.78
					c-4.47-1.7-9.79-0.27-12.81,3.43c-3.05,3.73-3.55,9.07-1.06,13.24c2.48,4.16,7.33,6.26,12.07,5.41
					c5.4-0.97,9.24-5.89,9.32-11.29C492.03,326.57,489.03,326.57,489,328.5z"/>
			</g>
		</g>
		<g>
			<g>
				<path d="M578,299.5c-0.05,3.52-2.21,6.77-5.56,7.98c-3.41,1.23-7.27,0.17-9.56-2.64c-2.22-2.73-2.47-6.69-0.67-9.7
					c1.78-2.98,5.38-4.66,8.81-4.01C575.06,291.91,577.94,295.4,578,299.5c0.03,1.93,3.03,1.93,3,0c-0.07-4.81-3.02-9.07-7.52-10.78
					c-4.47-1.7-9.79-0.27-12.81,3.43c-3.05,3.73-3.55,9.07-1.06,13.24c2.48,4.16,7.33,6.26,12.07,5.41
					c5.4-0.97,9.24-5.89,9.32-11.29C581.03,297.57,578.03,297.57,578,299.5z"/>
			</g>
		</g>
		<g>
			<g>
				<path d="M699,344.5c-0.05,3.52-2.21,6.77-5.56,7.98c-3.41,1.23-7.27,0.17-9.56-2.64c-2.22-2.73-2.47-6.69-0.67-9.7
					c1.78-2.98,5.38-4.66,8.81-4.01C696.06,336.91,698.94,340.4,699,344.5c0.03,1.93,3.03,1.93,3,0c-0.07-4.81-3.02-9.07-7.52-10.78
					c-4.47-1.7-9.79-0.27-12.81,3.43c-3.05,3.73-3.55,9.07-1.06,13.24c2.48,4.16,7.33,6.26,12.07,5.41
					c5.4-0.97,9.24-5.89,9.32-11.29C702.03,342.57,699.03,342.57,699,344.5z"/>
			</g>
		</g>
	</g>
</g>
</svg>
