<?xml version="1.0" encoding="utf-8"?>
<!-- Generator: Adobe Illustrator 24.0.0, SVG Export Plug-In . SVG Version: 6.00 Build 0)  -->
<svg version="1.1" id="Layer_1" xmlns="http://www.w3.org/2000/svg" xmlns:xlink="http://www.w3.org/1999/xlink" x="0px" y="0px"
	 viewBox="0 0 745 423" style="enable-background:new 0 0 745 423;" xml:space="preserve">
<style type="text/css">
	.st0{fill:#FFFFFF;}
</style>
<g>
	<g>
		<g>
			<line class="st0" x1="643.52" y1="286.69" x2="686.8" y2="321.99"/>
			<g>
				<path d="M642.46,287.75c4.87,3.97,9.74,7.94,14.61,11.91c7.77,6.33,15.54,12.67,23.3,19c1.79,1.46,3.58,2.92,5.37,4.38
					c1.48,1.21,3.62-0.9,2.12-2.12c-4.87-3.97-9.74-7.94-14.61-11.91c-7.77-6.33-15.54-12.67-23.3-19
					c-1.79-1.46-3.58-2.92-5.37-4.38C643.09,284.42,640.96,286.53,642.46,287.75L642.46,287.75z"/>
			</g>
		</g>
		<g>
			<polyline class="st0" points="575.57,235.15 626.5,272.5 627.02,272.75 			"/>
			<g>
				<path d="M574.81,236.45c5.84,4.28,11.68,8.57,17.52,12.85c9.19,6.74,18.37,13.47,27.56,20.21c1.47,1.08,2.94,2.16,4.42,3.24
					c0.64,0.47,1.24,0.96,1.95,1.3c1.73,0.83,3.25-1.75,1.51-2.59c-1.87-0.9-3.54-2.47-5.21-3.69c-4.02-2.95-8.04-5.9-12.06-8.85
					c-9.26-6.79-18.52-13.58-27.78-20.37c-2.13-1.56-4.26-3.13-6.4-4.69C574.77,232.71,573.27,235.31,574.81,236.45L574.81,236.45z"
					/>
			</g>
		</g>
		<g>
			<line class="st0" x1="500.53" y1="239.21" x2="556.66" y2="229.91"/>
			<g>
				<path d="M500.93,240.66c6.33-1.05,12.65-2.1,18.98-3.15c10.08-1.67,20.16-3.34,30.23-5.01c2.3-0.38,4.61-0.76,6.91-1.15
					c1.9-0.31,1.09-3.21-0.8-2.89c-6.33,1.05-12.65,2.1-18.98,3.15c-10.08,1.67-20.16,3.34-30.23,5.01
					c-2.3,0.38-4.61,0.76-6.91,1.15C498.23,238.08,499.04,240.97,500.93,240.66L500.93,240.66z"/>
			</g>
		</g>
		<g>
			<line class="st0" x1="398.12" y1="209.35" x2="479.24" y2="236.11"/>
			<g>
				<path d="M397.72,210.79c2.68,0.88,5.36,1.77,8.05,2.65c6.44,2.13,12.89,4.25,19.33,6.38c7.84,2.59,15.68,5.17,23.52,7.76
					c6.74,2.23,13.49,4.45,20.23,6.68c3.26,1.08,6.53,2.39,9.85,3.25c0.05,0.01,0.1,0.03,0.14,0.05c1.84,0.61,2.63-2.29,0.8-2.89
					c-2.68-0.88-5.36-1.77-8.05-2.65c-6.44-2.13-12.89-4.25-19.33-6.38c-7.84-2.59-15.68-5.17-23.52-7.76
					c-6.74-2.23-13.49-4.45-20.23-6.68c-3.26-1.08-6.53-2.39-9.85-3.25c-0.05-0.01-0.1-0.03-0.14-0.05
					C396.68,207.29,395.9,210.19,397.72,210.79L397.72,210.79z"/>
			</g>
		</g>
		<g>
			<line class="st0" x1="305.15" y1="274.09" x2="379.81" y2="213.75"/>
			<g>
				<path d="M306.21,275.15c2.48-2,4.95-4,7.43-6.01c5.95-4.81,11.9-9.61,17.84-14.42c7.16-5.79,14.33-11.58,21.49-17.37
					c6.22-5.03,12.45-10.06,18.67-15.09c2.06-1.67,4.12-3.33,6.18-5c0.96-0.78,2.01-1.5,2.91-2.35c0.04-0.04,0.09-0.07,0.13-0.11
					c1.5-1.21-0.63-3.32-2.12-2.12c-2.48,2-4.95,4-7.43,6.01c-5.95,4.81-11.9,9.61-17.84,14.42c-7.16,5.79-14.33,11.58-21.49,17.37
					c-6.22,5.03-12.45,10.06-18.67,15.09c-2.06,1.67-4.12,3.33-6.18,5c-0.96,0.78-2.01,1.5-2.91,2.35
					c-0.04,0.04-0.09,0.07-0.13,0.11C302.59,274.24,304.72,276.35,306.21,275.15L306.21,275.15z"/>
			</g>
		</g>
		<g>
			<line class="st0" x1="217.7" y1="308.61" x2="286.63" y2="284.98"/>
			<g>
				<path d="M218.1,310.06c7.77-2.66,15.54-5.33,23.32-7.99c12.38-4.24,24.76-8.49,37.13-12.73c2.83-0.97,5.66-1.94,8.48-2.91
					c1.82-0.62,1.04-3.52-0.8-2.89c-7.77,2.66-15.54,5.33-23.32,7.99c-12.38,4.24-24.76,8.49-37.13,12.73
					c-2.83,0.97-5.66,1.94-8.48,2.91C215.49,307.79,216.27,310.69,218.1,310.06L218.1,310.06z"/>
			</g>
		</g>
		<g>
			<line class="st0" x1="160.48" y1="286.22" x2="199.06" y2="306.54"/>
			<g>
				<path d="M159.72,287.51c4.33,2.28,8.66,4.56,12.99,6.84c6.94,3.66,13.89,7.31,20.83,10.97c1.59,0.84,3.17,1.67,4.76,2.51
					c1.71,0.9,3.22-1.69,1.51-2.59c-4.33-2.28-8.66-4.56-12.99-6.84c-6.94-3.66-13.89-7.31-20.83-10.97
					c-1.59-0.84-3.17-1.67-4.76-2.51C159.53,284.02,158.01,286.61,159.72,287.51L159.72,287.51z"/>
			</g>
		</g>
		<g>
			<line class="st0" x1="60.92" y1="347.91" x2="142.05" y2="287.11"/>
			<g>
				<path d="M61.68,349.21c2.69-2.02,5.39-4.04,8.08-6.06c6.47-4.85,12.94-9.7,19.4-14.54c7.79-5.84,15.58-11.68,23.37-17.51
					c6.76-5.07,13.52-10.14,20.29-15.21c3.28-2.46,6.57-4.9,9.84-7.38c0.05-0.04,0.1-0.07,0.15-0.11c1.53-1.14,0.03-3.75-1.51-2.59
					c-2.69,2.02-5.39,4.04-8.08,6.06c-6.47,4.85-12.94,9.7-19.4,14.54c-7.79,5.84-15.58,11.68-23.37,17.51
					c-6.76,5.07-13.52,10.14-20.29,15.21c-3.28,2.46-6.57,4.9-9.84,7.38c-0.05,0.04-0.1,0.07-0.15,0.11
					C58.64,347.76,60.13,350.37,61.68,349.21L61.68,349.21z"/>
			</g>
		</g>
	</g>
	<g>
		<g>
			<g>
				<path d="M159.5,281c-0.05,3.52-2.21,6.77-5.56,7.98c-3.41,1.23-7.27,0.17-9.56-2.64c-2.22-2.73-2.47-6.69-0.67-9.7
					c1.78-2.98,5.38-4.66,8.81-4.01C156.56,273.41,159.44,276.9,159.5,281c0.03,1.93,3.03,1.93,3,0c-0.07-4.81-3.02-9.07-7.52-10.78
					c-4.47-1.7-9.79-0.27-12.81,3.43c-3.05,3.73-3.55,9.07-1.06,13.24c2.48,4.16,7.33,6.26,12.07,5.41
					c5.4-0.97,9.24-5.89,9.32-11.29C162.53,279.07,159.53,279.07,159.5,281z"/>
			</g>
		</g>
		<g>
			<g>
				<path d="M216.5,311c-0.05,3.52-2.21,6.77-5.56,7.98c-3.41,1.23-7.27,0.17-9.56-2.64c-2.22-2.73-2.47-6.69-0.67-9.7
					c1.78-2.98,5.38-4.66,8.81-4.01C213.56,303.41,216.44,306.9,216.5,311c0.03,1.93,3.03,1.93,3,0c-0.07-4.81-3.02-9.07-7.52-10.78
					c-4.47-1.7-9.79-0.27-12.81,3.43c-3.05,3.73-3.55,9.07-1.06,13.24c2.48,4.16,7.33,6.26,12.07,5.41
					c5.4-0.97,9.24-5.89,9.32-11.29C219.53,309.07,216.53,309.07,216.5,311z"/>
			</g>
		</g>
		<g>
			<g>
				<path d="M304.5,280c-0.05,3.52-2.21,6.77-5.56,7.98c-3.41,1.23-7.27,0.17-9.56-2.64c-2.22-2.73-2.47-6.69-0.67-9.7
					c1.78-2.98,5.38-4.66,8.81-4.01C301.56,272.41,304.44,275.9,304.5,280c0.03,1.93,3.03,1.93,3,0c-0.07-4.81-3.02-9.07-7.52-10.78
					c-4.47-1.7-9.79-0.27-12.81,3.43c-3.05,3.73-3.55,9.07-1.06,13.24c2.48,4.16,7.33,6.26,12.07,5.41
					c5.4-0.97,9.24-5.89,9.32-11.29C307.53,278.07,304.53,278.07,304.5,280z"/>
			</g>
		</g>
		<g>
			<g>
				<path d="M396.5,207c-0.05,3.52-2.21,6.77-5.56,7.98c-3.41,1.23-7.27,0.17-9.56-2.64c-2.22-2.73-2.47-6.69-0.67-9.7
					c1.78-2.98,5.38-4.66,8.81-4.01C393.56,199.41,396.44,202.9,396.5,207c0.03,1.93,3.03,1.93,3,0c-0.07-4.81-3.02-9.07-7.52-10.78
					c-4.47-1.7-9.79-0.27-12.81,3.43c-3.05,3.73-3.55,9.07-1.06,13.24c2.48,4.16,7.33,6.26,12.07,5.41
					c5.4-0.97,9.24-5.89,9.32-11.29C399.53,205.07,396.53,205.07,396.5,207z"/>
			</g>
		</g>
		<g>
			<g>
				<path d="M498.5,240c-0.05,3.52-2.21,6.77-5.56,7.98c-3.41,1.23-7.27,0.17-9.56-2.64c-2.22-2.73-2.47-6.69-0.67-9.7
					c1.78-2.98,5.38-4.66,8.81-4.01C495.56,232.41,498.44,235.9,498.5,240c0.03,1.93,3.03,1.93,3,0c-0.07-4.81-3.02-9.07-7.52-10.78
					c-4.47-1.7-9.79-0.27-12.81,3.43c-3.05,3.73-3.55,9.07-1.06,13.24c2.48,4.16,7.33,6.26,12.07,5.41
					c5.4-0.97,9.24-5.89,9.32-11.29C501.53,238.07,498.53,238.07,498.5,240z"/>
			</g>
		</g>
		<g>
			<g>
				<path d="M575.5,230c-0.05,3.52-2.21,6.77-5.56,7.98c-3.41,1.23-7.27,0.17-9.56-2.64c-2.22-2.73-2.47-6.69-0.67-9.7
					c1.78-2.98,5.38-4.66,8.81-4.01C572.56,222.41,575.44,225.9,575.5,230c0.03,1.93,3.03,1.93,3,0c-0.07-4.81-3.02-9.07-7.52-10.78
					c-4.47-1.7-9.79-0.27-12.81,3.43c-3.05,3.73-3.55,9.07-1.06,13.24c2.48,4.16,7.33,6.26,12.07,5.41
					c5.4-0.97,9.24-5.89,9.32-11.29C578.53,228.07,575.53,228.07,575.5,230z"/>
			</g>
		</g>
		<g>
			<g>
				<path d="M643.5,280c-0.05,3.52-2.21,6.77-5.56,7.98c-3.41,1.23-7.27,0.17-9.56-2.64c-2.22-2.73-2.47-6.69-0.67-9.7
					c1.78-2.98,5.38-4.66,8.81-4.01C640.56,272.41,643.44,275.9,643.5,280c0.03,1.93,3.03,1.93,3,0c-0.07-4.81-3.02-9.07-7.52-10.78
					c-4.47-1.7-9.79-0.27-12.81,3.43c-3.05,3.73-3.55,9.07-1.06,13.24c2.48,4.16,7.33,6.26,12.07,5.41
					c5.4-0.97,9.24-5.89,9.32-11.29C646.53,278.07,643.53,278.07,643.5,280z"/>
			</g>
		</g>
		<g>
			<g>
				<path d="M703.5,329c-0.05,3.52-2.21,6.77-5.56,7.98c-3.41,1.23-7.27,0.17-9.56-2.64c-2.22-2.73-2.47-6.69-0.67-9.7
					c1.78-2.98,5.38-4.66,8.81-4.01C700.56,321.41,703.44,324.9,703.5,329c0.03,1.93,3.03,1.93,3,0c-0.07-4.81-3.02-9.07-7.52-10.78
					c-4.47-1.7-9.79-0.27-12.81,3.43c-3.05,3.73-3.55,9.07-1.06,13.24c2.48,4.16,7.33,6.26,12.07,5.41
					c5.4-0.97,9.24-5.89,9.32-11.29C706.53,327.07,703.53,327.07,703.5,329z"/>
			</g>
		</g>
		<g>
			<g>
				<path d="M61.5,354c-0.05,3.52-2.21,6.77-5.56,7.98c-3.41,1.23-7.27,0.17-9.56-2.64c-2.22-2.73-2.47-6.69-0.67-9.7
					c1.78-2.98,5.38-4.66,8.81-4.01C58.56,346.41,61.44,349.9,61.5,354c0.03,1.93,3.03,1.93,3,0c-0.07-4.81-3.02-9.07-7.52-10.78
					c-4.47-1.7-9.79-0.27-12.81,3.43c-3.05,3.73-3.55,9.07-1.06,13.24c2.48,4.16,7.33,6.26,12.07,5.41
					c5.4-0.97,9.24-5.89,9.32-11.29C64.53,352.07,61.53,352.07,61.5,354z"/>
			</g>
		</g>
	</g>
</g>
</svg>
